<svg id="Layer_1" data-name="Layer 1" xmlns="http://www.w3.org/2000/svg" viewBox="0 0 331.89 493.14">
    <defs>
        <style>.cls-1{fill:#e15726;}</style>
    </defs>
    <path d="M270.86,457A14.86,14.86,0,1,1,256,442.13,14.91,14.91,0,0,1,270.86,457Z"
        transform="translate(-124.21 -9.43)" />
    <path d="M228.35,44.18a7.43,7.43,0,1,1-7.43-7.43,7.45,7.45,0,0,1,7.43,7.43Z"
        transform="translate(-124.21 -9.43)" />
    <path
        d="M293.28,50.05H247.76c-2.87,0-5.23-2.6-5.23-5.87s2.32-5.87,5.23-5.87h45.52c2.87,0,5.23,2.6,5.23,5.87S296.19,50.05,293.28,50.05Z"
        transform="translate(-124.21 -9.43)" />
    <polygon class="cls-1"
        points="144.78 271.55 139.04 259.48 145.14 255.39 163.11 243.37 142.5 223.08 126.11 206.93 99.38 180.61 121.76 235.52 104.65 246.97 118.85 262.61 126.97 271.55 164.2 312.53 144.78 271.55" />
    <g id="Layer_1-2" data-name="Layer 1-2">
        <path
            d="M355.5,135.29h36.23a4,4,0,0,0,0-8H355.5a4,4,0,0,0,0,8Zm0,104.63H339.41a4,4,0,0,0,0,8.05H355.5a4,4,0,1,0,0-8.05Zm64.41,0H403.82a4,4,0,1,0,0,8.05h16.09a4,4,0,0,0,0-8.05Zm-80.52-88.54h80.5a4,4,0,0,0,0-8h-80.5a4,4,0,0,0,0,8Zm80.5,8.05h-80.5a4,4,0,1,0,0,8h80.5a4,4,0,1,0,0-8Zm0,16.09h-80.5a4,4,0,0,0,0,8h80.5a4,4,0,0,0,0-8Zm0,16.09h-80.5a4,4,0,0,0,0,8h80.5a4,4,0,0,0,0-8Zm0,16.09h-80.5a4,4,0,0,0,0,8.05h80.5a4,4,0,0,0,0-8.05Zm0,16.1h-80.5a4,4,0,1,0,0,8h80.5a4,4,0,1,0,0-8Z"
            transform="translate(-124.21 -9.43)" />
        <path
            d="M436,135.29a4,4,0,0,1-4-4,12.1,12.1,0,0,0-12.07-12.07,4,4,0,1,1,0-8A20.12,20.12,0,0,1,440,131.26a4,4,0,0,1-4,4Zm-112.7,0a4,4,0,0,1-4-4,12.1,12.1,0,0,0-12.07-12.07,4,4,0,1,1,0-8,20.12,20.12,0,0,1,20.11,20.11,4,4,0,0,1-4,4Z"
            transform="translate(-124.21 -9.43)" />
        <path
            d="M291.1,135.29a4,4,0,0,1-4-4,20.15,20.15,0,0,1,20.12-20.13,4,4,0,0,1,0,8.05,12.1,12.1,0,0,0-12.07,12.07,4,4,0,0,1-4,4h0Z"
            transform="translate(-124.21 -9.43)" />
        <path
            d="M452.09,256H440V131.25a20.13,20.13,0,0,0-20.11-20.12H303.17a4,4,0,0,0-2.94,1.32,20.13,20.13,0,0,0-13.16,18.8,4,4,0,0,0,4,4h28.18V260a20.13,20.13,0,0,0,20.11,20.12H436A20.14,20.14,0,0,0,456.1,260a4,4,0,0,0-4-4h0ZM307.19,119.18a12.06,12.06,0,0,1,11.33,8H295.87a12,12,0,0,1,11.32-8ZM327.31,260V131.25a19.9,19.9,0,0,0-4.14-12.07h96.7a12.09,12.09,0,0,1,12.07,12.07V256H355.47a4,4,0,0,0-4,4,12.07,12.07,0,1,1-24.14,0ZM436,272.11h-80.6a19.65,19.65,0,0,0,3.72-8.05h88.23A12.08,12.08,0,0,1,436,272.11h0Z"
            transform="translate(-124.21 -9.43)" />
    </g>
    <path
        d="M379.41,456.51A30.37,30.37,0,0,1,349,486.88H163a30.37,30.37,0,0,1-30.37-30.37v-401A30.37,30.37,0,0,1,163,25.12H349a30.37,30.37,0,0,1,30.37,30.37V75h8.38V39.8A30.37,30.37,0,0,0,357.42,9.43H154.58A30.37,30.37,0,0,0,124.21,39.8V472.2a30.37,30.37,0,0,0,30.37,30.37H357.42a30.37,30.37,0,0,0,30.37-30.37V316.28h-8.38Z"
        transform="translate(-124.21 -9.43)" />
</svg>